<svg id="Layer_1" enable-background="new 0 0 511.557 511.557" height="512" viewBox="0 0 511.557 511.557" width="512" xmlns="http://www.w3.org/2000/svg"><g><path d="m440.507 120.551c-20.588-43.588-68.59-67.839-116.274-57.991-59.35-94.364-205.203-77.069-241.115 28.13-114.731 13.448-109.211 175.037 7.425 179.702h345c40.219.872 76.861-34.657 75.999-75.001.001-39.824-31.886-72.317-71.035-74.84z"/><path d="m46.543 405.892c1.582 39.796 58.426 39.782 60 0 0-16.568-30-60-30-60s-30 43.431-30 60z"/><path d="m136.543 480.892c1.582 39.796 58.426 39.781 60 0 0-16.568-30-60-30-60s-30 43.431-30 60z"/><path d="m226.543 405.892c1.582 39.796 58.426 39.782 60 0 0-16.568-30-60-30-60s-30 43.431-30 60z"/><path d="m316.543 480.892c1.582 39.796 58.426 39.781 60 0 0-16.568-30-60-30-60s-30 43.431-30 60z"/><path d="m406.543 405.892c1.582 39.796 58.426 39.782 60 0 0-16.568-30-60-30-60s-30 43.431-30 60z"/></g></svg>